<svg xmlns="http://www.w3.org/2000/svg" width="155.259" height="44.32" viewBox="0 0 155.259 44.32"><path fill="#BBB" d="M56.92 26.624c2.093-2.508 3.466-2.882 3.456-2.851-6.773-4.352-9.031-1.046-10.41.933-1.397 2.016-2.489 2.349-2.495 2.363 8.264 3.005 9.393-.351 9.449-.445zm-4.28-8.486c.007-.013-1.114-1.275-2.037-5.691-.042.056.288-5.378-8.078-7.901.003-.004.814 1.283 1.297 4.536.454 3.284 1.37 7.609 8.818 9.056zm8.142 3.995c-1.465-1.929-1.633-3.793-1.633-3.798.157-4.544-1.651-6.574-2.859-8.062-1.183-1.523-5.131-2.972-5.139-2.964 1.245 1.784 1.161 5.348 1.166 5.335.882 8.456 8.526 9.398 8.465 9.489zm-20.917-2.131c2.105-2.963 3.529-3.495 3.522-3.478-7.334-3.29-9.518.232-10.885 2.5-1.392 2.313-2.528 2.87-2.531 2.877 8.713 2.089 9.854-1.836 9.894-1.899zm3.876-5.162c-1.633-1.673-1.905-3.43-1.905-3.432-.054-4.339-2.081-5.944-3.448-7.167-1.347-1.253-5.635-2.067-5.642-2.061 1.445 1.48 1.573 4.803 1.577 4.795 1.438 7.841 9.457 7.825 9.418 7.865zm5.543 7.184c-.002.004 1.091-1.356 2.744-1.58.04-.086-6.919-5.078-10.773.652-.008.017-1.167 2.5-2.914 2.848.004-.003 4.117 1.572 5.697 1.42 1.604-.188 3.403.097 5.246-3.34zM34 11.555c.003-.004-1.238-1.085-2.524-5.066-.032.037-.094-4.993-9.163-6.136.001-.001.985 1.051 1.768 3.973.769 2.937 2.028 6.946 9.919 7.229zm-14.012 3.793c2.482-2.773 3.995-3.142 3.993-3.137-7.47-3.613-9.977-.389-11.638 1.797-1.677 2.215-2.942 2.742-2.942 2.743 8.912 2.511 10.566-1.367 10.587-1.403zM13.276 3.971c2.841 6.833 10.968 4.914 10.962 4.908-1.933-1.147-2.5-2.689-2.498-2.692-.765-3.947-3.156-4.842-4.781-5.612-.811-.392-2.351-.527-3.691-.563A31.898 31.898 0 0 0 11.526.01c-.452.011-.736.025-.736.025 1.753.991 2.485 3.937 2.486 3.936zm20.219 9.909c.037-.064-7.559-3.937-11.2 2.254-.004.006-1.079 2.701-2.877 3.336.004-.006 4.341 1.039 5.982.644 1.654-.421 3.563-.48 5.309-4.248-.003.006 1.065-1.515 2.786-1.986zM15.701 9.378c-.984-.412-2.209-2.088-4.339-3.517-4.13-2.749-8.053.014-8.293.167C1.765 6.894 0 7.464 0 7.464c1.305.66 2.82 2.01 2.819 2.01 4.379 2.755 7.65 2.115 9.102 1.354 1.449-.754 3.78-1.451 3.78-1.45zm80.246 18.31c.017.049-1.976-2.807-3.972-3.305-.002-.001 1.268-2.366 1.674-5.212.013.039.661-5.444 2.741-8.107-.02-.028-5.631 2.73-6.366 6.598-.756 3.811-1.163 5.584-1.86 6.448-4.023 1.447-7.594 3.565-10.702 5.896-3.103-2.342-6.672-4.471-10.694-5.923-.694-.862-1.098-2.633-1.851-6.44-.731-3.864-6.316-6.619-6.336-6.591 2.07 2.66 2.715 8.137 2.728 8.098.404 2.842 1.668 5.205 1.666 5.206-1.987.498-3.97 3.35-3.953 3.301-1.226 1.693-3.168 1.821-3.175 1.84 1.93.53 5.147 2.082 6.483.26 1.364-1.901 4.024-3.068 4.017-3.054 3.178 1.122 6.311 2.858 9.211 4.803-6.456 5.329-10.597 11.249-12.21 12.815l1.257-.563c-.531 1.167 5.106-5.337 12.86-10.92 7.69 5.569 13.274 12.035 12.746 10.871l1.251.562c-1.6-1.56-5.703-7.443-12.096-12.755 2.904-1.937 6.04-3.665 9.22-4.783-.007-.014 2.666 1.154 4.037 3.058 1.342 1.824 4.575.271 6.514-.26-.006-.019-1.958-.148-3.19-1.843zm9.102-2.954c-1.386-1.981-3.655-5.291-10.461-.934-.01-.031 1.369.344 3.473 2.854.057.094 1.191 3.454 9.496.445-.006-.014-1.104-.347-2.508-2.365zm6.174-15.642c.486-3.257 1.301-4.546 1.304-4.541-8.406 2.526-8.075 7.966-8.117 7.91-.927 4.421-2.054 5.685-2.047 5.698 7.483-1.45 8.404-5.78 8.86-9.067zm-15.402 9.263c0 .005-.169 1.871-1.641 3.802-.062-.091 7.62-1.034 8.506-9.499.006.012-.079-3.556 1.172-5.341-.008-.008-3.975 1.443-5.164 2.967-1.214 1.49-3.03 3.522-2.873 8.071zm26.778.691c-1.374-2.271-3.569-5.797-10.938-2.502-.007-.017 1.424.515 3.539 3.481.039.063 1.186 3.992 9.942 1.901-.003-.007-1.145-.565-2.543-2.88zm-1.832-12.064c.005.008.133-3.318 1.585-4.801-.007-.006-4.316.809-5.669 2.063-1.373 1.224-3.409 2.832-3.464 7.175.001.001-.273 1.761-1.914 3.435-.04-.037 8.018-.021 9.462-7.872zm-6.965 14.137c-3.872-5.737-10.865-.739-10.825-.653 1.661.224 2.76 1.586 2.758 1.582 1.852 3.441 3.659 3.155 5.271 3.343 1.587.151 5.721-1.424 5.725-1.422-1.756-.347-2.921-2.833-2.929-2.85zm7.291-9.551c7.929-.283 9.194-4.297 9.967-7.237.788-2.924 1.776-3.978 1.777-3.977-9.113 1.144-9.176 6.18-9.207 6.143-1.292 3.985-2.539 5.067-2.537 5.071zm21.762 2.456c-1.669-2.188-4.189-5.417-11.695-1.8-.002-.005 1.518.364 4.012 3.141.021.036 1.684 3.918 10.639 1.405.001-.001-1.271-.528-2.956-2.746zm-11.952-5.135c-.006.005 8.161 1.927 11.015-4.913.001.001.737-2.948 2.499-3.94 0 0-.286-.015-.74-.025a35.486 35.486 0 0 0-1.75.002c-1.347.036-2.894.172-3.709.564-1.633.771-4.036 1.667-4.805 5.618.002.001-.568 1.545-2.51 2.694zm1.951 7.263c-3.658-6.198-11.291-2.321-11.254-2.256 1.73.471 2.802 1.993 2.799 1.988 1.754 3.772 3.673 3.831 5.334 4.253 1.649.395 6.007-.651 6.012-.645-1.806-.635-2.887-3.333-2.891-3.34zm19.321-10.117c-.241-.154-4.183-2.92-8.333-.168-2.14 1.431-3.372 3.109-4.36 3.521 0 0 2.341.697 3.798 1.453 1.459.762 4.746 1.403 9.146-1.356 0-.001 1.521-1.352 2.833-2.013-.001 0-1.774-.57-3.084-1.437z"/></svg>