<svg xmlns="http://www.w3.org/2000/svg" xmlns:xlink="http://www.w3.org/1999/xlink" height="147" viewBox="0 0 164 147" width="164"><svg height="44.32" viewBox="0 0 156 45" width="155.259" x="4" y="4"><path fill="#BBB" d="M56.92 26.624c2.093-2.508 3.466-2.882 3.456-2.851-6.773-4.352-9.031-1.046-10.41.933-1.397 2.016-2.489 2.349-2.495 2.363 8.264 3.005 9.393-.351 9.449-.445zm-4.28-8.486c.007-.013-1.114-1.275-2.037-5.691-.042.056.288-5.378-8.078-7.901.003-.004.814 1.283 1.297 4.536.454 3.284 1.37 7.609 8.818 9.056zm8.142 3.995c-1.465-1.929-1.633-3.793-1.633-3.798.157-4.544-1.651-6.574-2.859-8.062-1.183-1.523-5.131-2.972-5.139-2.964 1.245 1.784 1.161 5.348 1.166 5.335.882 8.456 8.526 9.398 8.465 9.489zm-20.917-2.131c2.105-2.963 3.529-3.495 3.522-3.478-7.334-3.29-9.518.232-10.885 2.5-1.392 2.313-2.528 2.87-2.531 2.877 8.713 2.089 9.854-1.836 9.894-1.899zm3.876-5.162c-1.633-1.673-1.905-3.43-1.905-3.432-.054-4.339-2.081-5.944-3.448-7.167-1.347-1.253-5.635-2.067-5.642-2.061 1.445 1.48 1.573 4.803 1.577 4.795 1.438 7.841 9.457 7.825 9.418 7.865zm5.543 7.184c-.002.004 1.091-1.356 2.744-1.58.04-.086-6.919-5.078-10.773.652-.008.017-1.167 2.5-2.914 2.848.004-.003 4.117 1.572 5.697 1.42 1.604-.188 3.403.097 5.246-3.34zM34 11.555c.003-.004-1.238-1.085-2.524-5.066-.032.037-.094-4.993-9.163-6.136.001-.001.985 1.051 1.768 3.973.769 2.937 2.028 6.946 9.919 7.229zm-14.012 3.793c2.482-2.773 3.995-3.142 3.993-3.137-7.47-3.613-9.977-.389-11.638 1.797-1.677 2.215-2.942 2.742-2.942 2.743 8.912 2.511 10.566-1.367 10.587-1.403zM13.276 3.971c2.841 6.833 10.968 4.914 10.962 4.908-1.933-1.147-2.5-2.689-2.498-2.692-.765-3.947-3.156-4.842-4.781-5.612-.811-.392-2.351-.527-3.691-.563A31.898 31.898 0 0 0 11.526.01c-.452.011-.736.025-.736.025 1.753.991 2.485 3.937 2.486 3.936zm20.219 9.909c.037-.064-7.559-3.937-11.2 2.254-.004.006-1.079 2.701-2.877 3.336.004-.006 4.341 1.039 5.982.644 1.654-.421 3.563-.48 5.309-4.248-.003.006 1.065-1.515 2.786-1.986zM15.701 9.378c-.984-.412-2.209-2.088-4.339-3.517-4.13-2.749-8.053.014-8.293.167C1.765 6.894 0 7.464 0 7.464c1.305.66 2.82 2.01 2.819 2.01 4.379 2.755 7.65 2.115 9.102 1.354 1.449-.754 3.78-1.451 3.78-1.45zm80.246 18.31c.017.049-1.976-2.807-3.972-3.305-.002-.001 1.268-2.366 1.674-5.212.013.039.661-5.444 2.741-8.107-.02-.028-5.631 2.73-6.366 6.598-.756 3.811-1.163 5.584-1.86 6.448-4.023 1.447-7.594 3.565-10.702 5.896-3.103-2.342-6.672-4.471-10.694-5.923-.694-.862-1.098-2.633-1.851-6.44-.731-3.864-6.316-6.619-6.336-6.591 2.07 2.66 2.715 8.137 2.728 8.098.404 2.842 1.668 5.205 1.666 5.206-1.987.498-3.97 3.35-3.953 3.301-1.226 1.693-3.168 1.821-3.175 1.84 1.93.53 5.147 2.082 6.483.26 1.364-1.901 4.024-3.068 4.017-3.054 3.178 1.122 6.311 2.858 9.211 4.803-6.456 5.329-10.597 11.249-12.21 12.815l1.257-.563c-.531 1.167 5.106-5.337 12.86-10.92 7.69 5.569 13.274 12.035 12.746 10.871l1.251.562c-1.6-1.56-5.703-7.443-12.096-12.755 2.904-1.937 6.04-3.665 9.22-4.783-.007-.014 2.666 1.154 4.037 3.058 1.342 1.824 4.575.271 6.514-.26-.006-.019-1.958-.148-3.19-1.843zm9.102-2.954c-1.386-1.981-3.655-5.291-10.461-.934-.01-.031 1.369.344 3.473 2.854.057.094 1.191 3.454 9.496.445-.006-.014-1.104-.347-2.508-2.365zm6.174-15.642c.486-3.257 1.301-4.546 1.304-4.541-8.406 2.526-8.075 7.966-8.117 7.91-.927 4.421-2.054 5.685-2.047 5.698 7.483-1.45 8.404-5.78 8.86-9.067zm-15.402 9.263c0 .005-.169 1.871-1.641 3.802-.062-.091 7.62-1.034 8.506-9.499.006.012-.079-3.556 1.172-5.341-.008-.008-3.975 1.443-5.164 2.967-1.214 1.49-3.03 3.522-2.873 8.071zm26.778.691c-1.374-2.271-3.569-5.797-10.938-2.502-.007-.017 1.424.515 3.539 3.481.039.063 1.186 3.992 9.942 1.901-.003-.007-1.145-.565-2.543-2.88zm-1.832-12.064c.005.008.133-3.318 1.585-4.801-.007-.006-4.316.809-5.669 2.063-1.373 1.224-3.409 2.832-3.464 7.175.001.001-.273 1.761-1.914 3.435-.04-.037 8.018-.021 9.462-7.872zm-6.965 14.137c-3.872-5.737-10.865-.739-10.825-.653 1.661.224 2.76 1.586 2.758 1.582 1.852 3.441 3.659 3.155 5.271 3.343 1.587.151 5.721-1.424 5.725-1.422-1.756-.347-2.921-2.833-2.929-2.85zm7.291-9.551c7.929-.283 9.194-4.297 9.967-7.237.788-2.924 1.776-3.978 1.777-3.977-9.113 1.144-9.176 6.18-9.207 6.143-1.292 3.985-2.539 5.067-2.537 5.071zm21.762 2.456c-1.669-2.188-4.189-5.417-11.695-1.8-.002-.005 1.518.364 4.012 3.141.021.036 1.684 3.918 10.639 1.405.001-.001-1.271-.528-2.956-2.746zm-11.952-5.135c-.006.005 8.161 1.927 11.015-4.913.001.001.737-2.948 2.499-3.94 0 0-.286-.015-.74-.025a35.486 35.486 0 0 0-1.75.002c-1.347.036-2.894.172-3.709.564-1.633.771-4.036 1.667-4.805 5.618.002.001-.568 1.545-2.51 2.694zm1.951 7.263c-3.658-6.198-11.291-2.321-11.254-2.256 1.73.471 2.802 1.993 2.799 1.988 1.754 3.772 3.673 3.831 5.334 4.253 1.649.395 6.007-.651 6.012-.645-1.806-.635-2.887-3.333-2.891-3.34zm19.321-10.117c-.241-.154-4.183-2.92-8.333-.168-2.14 1.431-3.372 3.109-4.36 3.521 0 0 2.341.697 3.798 1.453 1.459.762 4.746 1.403 9.146-1.356 0-.001 1.521-1.352 2.833-2.013-.001 0-1.774-.57-3.084-1.437z"/></svg><svg height="72.827" viewBox="0 0 137 73" width="136.648" x="4" y="53"><path fill="#333" d="M2.073 28.996c.616.235 1.327.426 2.134.572.806.147 1.62.271 2.442.374a36.87 36.87 0 0 0 4.048.286c1.789 0 3.424-.198 4.906-.594 1.481-.396 2.75-.99 3.806-1.782a7.998 7.998 0 0 0 2.442-2.97c.572-1.188.858-2.588.858-4.202 0-1.613-.367-2.97-1.1-4.07a6.314 6.314 0 0 0-2.948-2.398c1.114-.557 2.002-1.386 2.662-2.486.66-1.1.99-2.266.99-3.498 0-2.581-.851-4.598-2.552-6.05S15.376 0 11.709 0a31.367 31.367 0 0 0-4.048.286c-.763.103-1.525.242-2.288.418-.763.176-1.452.382-2.068.616-.528.235-.887.448-1.078.638a.93.93 0 0 0-.286.682c0 .206.014.367.044.484.117.47.22.924.308 1.364.088.44.176.895.264 1.364.088.323.19.543.308.66.117.118.308.176.572.176.088 0 .19-.007.308-.022.117-.014.249-.036.396-.066a36.818 36.818 0 0 1 3.564-.506 34.292 34.292 0 0 1 2.992-.154c.645 0 1.246.044 1.804.132.557.088 1.041.25 1.452.484.41.235.733.55.968.946.234.396.352.888.352 1.474 0 .851-.382 1.511-1.144 1.98-.763.47-1.614.704-2.552.704H8.365c-.499 0-.829.11-.99.33-.162.22-.242.565-.242 1.034v2.86c0 .499.08.829.242.99.161.162.506.242 1.034.242h3.256c1.408 0 2.412.316 3.014.946.601.631.902 1.46.902 2.486 0 1.32-.455 2.274-1.364 2.86-.91.587-2.259.88-4.048.88a41.1 41.1 0 0 1-3.586-.176 55.943 55.943 0 0 1-3.938-.484 2.113 2.113 0 0 0-.484-.044c-.323 0-.558.074-.704.22-.147.147-.25.411-.308.792l-.484 2.42c-.03.118-.044.279-.044.484 0 .323.102.594.308.814.205.22.587.448 1.144.682zm26.598-2.134c.748 1.012 1.804 1.826 3.168 2.442 1.364.616 3.146.924 5.346.924.528 0 1.114-.022 1.76-.066a27.31 27.31 0 0 0 1.914-.198 24.36 24.36 0 0 0 1.848-.33 15.466 15.466 0 0 0 1.562-.418c.674-.264 1.056-.535 1.144-.814.088-.278.088-.667 0-1.166l-.352-2.068c-.118-.557-.25-.872-.396-.946-.147-.073-.514-.08-1.1-.022-.91.118-1.834.22-2.772.308a26.49 26.49 0 0 1-2.42.132c-.734 0-1.386-.051-1.958-.154-.572-.102-1.056-.308-1.452-.616-.396-.308-.712-.726-.946-1.254-.235-.528-.367-1.217-.396-2.068h10.736c.938 0 1.576-.242 1.914-.726.337-.484.506-1.18.506-2.09a16.29 16.29 0 0 0-.396-3.542 8.443 8.443 0 0 0-1.474-3.234c-.719-.968-1.724-1.752-3.014-2.354-1.291-.601-2.992-.902-5.104-.902-2.318 0-4.144.396-5.478 1.188-1.335.792-2.34 1.775-3.014 2.948-.675 1.174-1.1 2.42-1.276 3.74s-.264 2.508-.264 3.564c0 1.467.132 2.868.396 4.202.264 1.335.77 2.508 1.518 3.52zm5.852-13.068c.484-.63 1.239-.946 2.266-.946 1.144 0 1.936.36 2.376 1.078.44.719.66 1.606.66 2.662h-6.116c.059-1.232.33-2.163.814-2.794zm16.874 24.618h4.84c.41 0 .667-.11.77-.33.103-.22.154-.433.154-.638v-7.832h.044c.792.234 1.628.403 2.508.506.88.102 1.628.154 2.244.154 1.789 0 3.263-.264 4.422-.792 1.159-.528 2.075-1.276 2.75-2.244.674-.968 1.136-2.156 1.386-3.564.249-1.408.374-2.992.374-4.752a29.49 29.49 0 0 0-.308-4.378c-.206-1.364-.58-2.544-1.122-3.542a6.086 6.086 0 0 0-2.244-2.354c-.953-.572-2.193-.858-3.718-.858-1.027 0-2.083.228-3.168.682a15.22 15.22 0 0 0-3.08 1.738c-.029 0-.044-.007-.044-.022 0-.014-.015-.022-.044-.022V9.108c0-.234-.052-.454-.154-.66-.103-.205-.359-.308-.77-.308h-4.84c-.352 0-.594.088-.726.264-.132.176-.198.411-.198.704v28.336c0 .293.059.528.176.704.117.176.366.264.748.264zm5.764-23.188c.528-.234 1.188-.506 1.98-.814s1.525-.462 2.2-.462c.44 0 .829.066 1.166.198.337.132.616.389.836.77.22.382.381.895.484 1.54.102.646.154 1.496.154 2.552 0 1.144-.059 2.076-.176 2.794-.118.719-.316 1.284-.594 1.694-.279.411-.631.69-1.056.836-.425.147-.946.22-1.562.22a14.46 14.46 0 0 1-1.562-.088 10.89 10.89 0 0 1-1.87-.396v-8.844zM75.64 29.832h4.796c.41 0 .667-.102.77-.308.102-.205.154-.425.154-.66v-7.832h6.996v7.832c0 .323.065.565.197.726.131.162.4.242.809.242h4.721c.437 0 .707-.102.809-.308.102-.205.153-.425.153-.66V9.152c0-.234-.052-.462-.153-.682-.102-.22-.371-.33-.809-.33h-4.721c-.408 0-.678.088-.809.264-.131.176-.197.426-.197.748v6.908H81.36V9.152c0-.234-.052-.462-.154-.682-.103-.22-.36-.33-.77-.33H75.64c-.411 0-.675.088-.792.264-.118.176-.176.426-.176.748v19.712c0 .323.058.565.176.726.117.162.381.242.792.242zm42.108-18.568c-.734-1.056-1.79-1.914-3.168-2.574-1.379-.66-3.198-.99-5.456-.99-2.259 0-4.056.382-5.39 1.144-1.335.763-2.347 1.709-3.036 2.838a9.864 9.864 0 0 0-1.342 3.586c-.206 1.262-.308 2.391-.308 3.388 0 1.203.08 2.479.242 3.828a9.486 9.486 0 0 0 1.254 3.74c.674 1.144 1.679 2.09 3.014 2.838 1.334.748 3.19 1.122 5.566 1.122 2.405 0 4.304-.374 5.698-1.122 1.393-.748 2.442-1.694 3.146-2.838a9.362 9.362 0 0 0 1.32-3.74 29.65 29.65 0 0 0 .264-3.828c0-1.261-.118-2.544-.352-3.85a8.901 8.901 0 0 0-1.452-3.542zM112.006 23.1c-.455.91-1.416 1.364-2.882 1.364-1.32 0-2.2-.44-2.64-1.32-.44-.88-.66-2.288-.66-4.224 0-1.789.227-3.153.682-4.092.454-.938 1.356-1.408 2.706-1.408 1.466 0 2.412.455 2.838 1.364.425.91.638 2.288.638 4.136 0 1.878-.228 3.271-.682 4.18zM129.61 6.988h-4.626c-.144 0-.216.078-.216.234v.918c0 .18.084.27.252.27h1.422v3.978c0 .168.09.252.27.252h1.152c.18 0 .27-.084.27-.252V8.41h1.458c.168 0 .252-.09.252-.27v-.918c0-.156-.078-.234-.234-.234zm6.804-.018h-1.152c-.096 0-.165.021-.207.063a1.133 1.133 0 0 0-.135.171c-.252.468-.486.888-.702 1.26l-.495.855c-.15.258-.219.387-.207.387h-.018l-1.404-2.502a1.133 1.133 0 0 0-.135-.171c-.042-.042-.111-.063-.207-.063h-1.188c-.168 0-.252.078-.252.234v5.184c0 .168.084.252.252.252h1.188c.168 0 .252-.084.252-.252V9.706c.012 0 .018.003.018.009 0 .006.006.009.018.009l.324.612.594 1.152c.036.06.075.105.117.135.042.03.111.045.207.045h.378c.132 0 .246-.072.342-.216l.684-1.206.27-.522h.036v2.664c0 .168.084.252.252.252h1.17c.156 0 .234-.084.234-.252V7.204c0-.156-.078-.234-.234-.234zM43.481 59.309c1.599-1.916 2.648-2.202 2.64-2.178-5.174-3.325-6.898-.799-7.952.712-1.067 1.54-1.902 1.794-1.906 1.805 6.313 2.296 7.174-.268 7.218-.339zM32.484 42.444c.002-.003.622.98.991 3.465.347 2.508 1.046 5.813 6.735 6.918.005-.01-.851-.974-1.556-4.348-.031.043.221-4.108-6.17-6.035zm13.947 13.434c-1.119-1.474-1.247-2.897-1.247-2.901.12-3.471-1.261-5.022-2.184-6.158-.904-1.163-3.919-2.27-3.926-2.264.951 1.362.887 4.085.891 4.076.673 6.458 6.513 7.178 6.466 7.247zM30.452 54.25c1.608-2.263 2.696-2.67 2.691-2.656-5.602-2.514-7.271.177-8.315 1.909-1.063 1.767-1.931 2.192-1.934 2.198 6.656 1.596 7.528-1.403 7.558-1.451zm2.962-3.943c-1.248-1.278-1.456-2.62-1.455-2.621-.042-3.314-1.59-4.541-2.633-5.475-1.029-.957-4.304-1.579-4.31-1.574 1.104 1.131 1.201 3.669 1.205 3.663 1.097 5.989 7.222 5.977 7.193 6.007zm4.233 5.488c-.001.003.834-1.036 2.096-1.207.031-.066-5.286-3.88-8.229.498-.006.013-.892 1.909-2.226 2.175.003-.002 3.145 1.2 4.352 1.085 1.226-.143 2.6.075 4.007-2.551zm-19.252-13.52c.588 2.244 1.549 5.306 7.577 5.523.002-.003-.946-.829-1.928-3.87-.024.028-.072-3.814-6.999-4.688 0 0 .752.804 1.35 3.035zm-3.126 8.42c1.896-2.118 3.052-2.401 3.05-2.397-5.706-2.76-7.621-.297-8.89 1.373-1.281 1.692-2.247 2.094-2.248 2.095 6.808 1.919 8.072-1.043 8.088-1.071zm1.338-6.998c-.584-3.015-2.411-3.698-3.652-4.287-.62-.299-1.796-.403-2.82-.43a26.608 26.608 0 0 0-1.33-.001c-.345.008-.562.02-.562.02 1.339.757 1.899 3.007 1.899 3.006 2.17 5.219 8.379 3.753 8.374 3.749-1.477-.877-1.91-2.055-1.909-2.057zm8.98 5.877c.028-.049-5.774-3.008-8.555 1.722-.003.005-.824 2.064-2.198 2.548.003-.005 3.316.794 4.57.492 1.263-.321 2.721-.366 4.055-3.245-.003.004.813-1.157 2.128-1.517zm-13.593-3.44c-.752-.315-1.688-1.595-3.315-2.686-3.155-2.1-6.152.011-6.335.128C1.348 44.238 0 44.672 0 44.673c.997.504 2.154 1.535 2.154 1.536 3.345 2.105 5.844 1.616 6.953 1.034 1.106-.577 2.887-1.109 2.887-1.109zm61.299 13.988c.013.038-1.509-2.144-3.034-2.524-.001-.001.968-1.808 1.279-3.981.01.03.505-4.159 2.094-6.193-.015-.021-4.302 2.086-4.863 5.04-.578 2.911-.888 4.266-1.421 4.925-3.076 1.107-5.799 2.73-8.175 4.514-2.372-1.791-5.094-3.424-8.17-4.535-.53-.658-.839-2.012-1.414-4.919-.559-2.951-4.825-5.056-4.84-5.035 1.582 2.032 2.074 6.216 2.084 6.186.309 2.171 1.274 3.976 1.273 3.977-1.517.38-3.033 2.559-3.02 2.522-.936 1.293-2.42 1.391-2.426 1.405 1.474.405 3.932 1.59 4.952.198 1.042-1.452 3.074-2.343 3.069-2.333 2.43.858 4.826 2.186 7.043 3.673-4.93 4.071-8.102 8.589-9.333 9.785l.96-.43c-.406.892 3.9-4.077 9.823-8.342 5.874 4.254 10.139 9.193 9.737 8.304l.956.429c-1.222-1.191-4.363-5.682-9.246-9.739 2.22-1.481 4.618-2.803 7.049-3.658-.005-.011 2.037.882 3.083 2.336 1.025 1.393 3.495.207 4.976-.199-.004-.013-1.495-.111-2.436-1.406zm6.953-2.257c-1.059-1.513-2.792-4.042-7.991-.714-.008-.024 1.046.262 2.653 2.18.044.072.91 2.639 7.253.34-.004-.01-.843-.264-1.915-1.806zm4.716-11.948c.371-2.487.994-3.472.996-3.469-6.421 1.93-6.168 6.085-6.201 6.042-.708 3.377-1.569 4.343-1.564 4.353 5.717-1.108 6.42-4.416 6.769-6.926zm-9.57.91c-.928 1.138-2.315 2.69-2.195 6.165 0 .004-.129 1.429-1.253 2.904-.047-.07 5.82-.79 6.498-7.256.004.009-.06-2.716.895-4.08-.007-.005-3.037 1.103-3.945 2.267zm18.26 6.693c-1.05-1.734-2.726-4.428-8.356-1.912-.005-.013 1.088.394 2.704 2.659.03.049.906 3.05 7.595 1.452-.003-.004-.875-.43-1.943-2.199zm-1.4-9.215c.004.006.101-2.535 1.211-3.667-.005-.005-3.297.618-4.331 1.576-1.049.936-2.605 2.163-2.646 5.482 0 .001-.208 1.345-1.462 2.624-.03-.03 6.126-.018 7.228-6.015zm-5.32 10.799c-2.958-4.382-8.3-.564-8.269-.499 1.269.171 2.108 1.212 2.106 1.208 1.414 2.629 2.795 2.411 4.027 2.554 1.212.115 4.37-1.088 4.373-1.086-1.341-.265-2.231-2.164-2.237-2.177zm7.508-11.17c-.987 3.044-1.94 3.871-1.938 3.874 6.057-.216 7.023-3.283 7.614-5.529.602-2.234 1.357-3.039 1.357-3.038-6.961.874-7.009 4.721-7.033 4.693zm14.685 5.75c-1.275-1.672-3.2-4.138-8.933-1.375-.002-.004 1.16.278 3.065 2.399.016.027 1.286 2.993 8.127 1.073 0 0-.971-.403-2.259-2.097zm-.715-7.676c.001.001.563-2.252 1.909-3.01 0 0-.218-.012-.565-.02a26.845 26.845 0 0 0-1.337.001c-1.029.028-2.211.131-2.833.431-1.248.589-3.083 1.274-3.67 4.292.001.001-.434 1.181-1.918 2.058-.006.005 6.233 1.473 8.414-3.752zm-6.924 9.302c-2.795-4.735-8.625-1.773-8.597-1.724 1.321.36 2.141 1.523 2.138 1.519 1.34 2.882 2.805 2.927 4.075 3.249 1.26.302 4.589-.498 4.592-.493-1.38-.485-2.205-2.546-2.208-2.551zm8.393-7.857c-1.635 1.093-2.576 2.375-3.331 2.689 0 0 1.789.533 2.901 1.11 1.114.582 3.626 1.071 6.987-1.036 0 0 1.162-1.033 2.164-1.538 0 0-1.355-.436-2.355-1.098-.184-.116-3.196-2.229-6.366-.127z"/></svg><svg height="13" viewBox="0 0 14 13" width="14" x="4" y="130"><path fill-rule="evenodd" clip-rule="evenodd" fill="#7A9432" d="M0 7.091h1.167V13h4.667V8.273h2.333V13h4.667V7.091H14l-2.333-2.364V0H9.333v2.364L7 0 0 7.091z"/></svg></svg>