<?xml version="1.0" encoding="utf-8"?>
<!-- Generator: Adobe Illustrator 17.0.0, SVG Export Plug-In . SVG Version: 6.00 Build 0)  -->
<!DOCTYPE svg PUBLIC "-//W3C//DTD SVG 1.1//EN" "http://www.w3.org/Graphics/SVG/1.1/DTD/svg11.dtd">
<svg version="1.1" id="Layer_1" xmlns="http://www.w3.org/2000/svg" xmlns:xlink="http://www.w3.org/1999/xlink" x="0px" y="0px"
	 width="136.648px" height="72.827px" viewBox="0 0 136.648 72.827" enable-background="new 0 0 136.648 72.827"
	 xml:space="preserve">
<g>
	<g>
		<path fill="#333333" d="M2.073,28.996c0.616,0.235,1.327,0.426,2.134,0.572c0.806,0.147,1.62,0.271,2.442,0.374
			c0.821,0.102,1.598,0.176,2.332,0.22c0.733,0.044,1.305,0.066,1.716,0.066c1.789,0,3.424-0.198,4.906-0.594
			c1.481-0.396,2.75-0.99,3.806-1.782c1.056-0.792,1.87-1.782,2.442-2.97c0.572-1.188,0.858-2.588,0.858-4.202
			c0-1.613-0.367-2.97-1.1-4.07c-0.734-1.1-1.716-1.899-2.948-2.398c1.114-0.557,2.002-1.386,2.662-2.486
			c0.66-1.1,0.99-2.266,0.99-3.498c0-2.581-0.851-4.598-2.552-6.05C18.06,0.726,15.376,0,11.709,0c-0.528,0-1.144,0.022-1.848,0.066
			c-0.704,0.044-1.438,0.118-2.2,0.22C6.898,0.389,6.136,0.528,5.373,0.704C4.61,0.88,3.921,1.086,3.305,1.32
			C2.777,1.555,2.418,1.768,2.227,1.958C2.036,2.149,1.941,2.376,1.941,2.64c0,0.206,0.014,0.367,0.044,0.484
			c0.117,0.47,0.22,0.924,0.308,1.364c0.088,0.44,0.176,0.895,0.264,1.364c0.088,0.323,0.19,0.543,0.308,0.66
			C2.982,6.63,3.173,6.688,3.437,6.688c0.088,0,0.19-0.007,0.308-0.022C3.862,6.652,3.994,6.63,4.141,6.6
			c1.232-0.234,2.42-0.403,3.564-0.506C8.849,5.992,9.846,5.94,10.697,5.94c0.645,0,1.246,0.044,1.804,0.132
			c0.557,0.088,1.041,0.25,1.452,0.484c0.41,0.235,0.733,0.55,0.968,0.946c0.234,0.396,0.352,0.888,0.352,1.474
			c0,0.851-0.382,1.511-1.144,1.98c-0.763,0.47-1.614,0.704-2.552,0.704H8.365c-0.499,0-0.829,0.11-0.99,0.33
			c-0.162,0.22-0.242,0.565-0.242,1.034v2.86c0,0.499,0.08,0.829,0.242,0.99c0.161,0.162,0.506,0.242,1.034,0.242h3.256
			c1.408,0,2.412,0.316,3.014,0.946c0.601,0.631,0.902,1.46,0.902,2.486c0,1.32-0.455,2.274-1.364,2.86
			c-0.91,0.587-2.259,0.88-4.048,0.88c-1.056,0-2.252-0.058-3.586-0.176c-1.335-0.117-2.648-0.278-3.938-0.484
			c-0.118-0.029-0.279-0.044-0.484-0.044c-0.323,0-0.558,0.074-0.704,0.22c-0.147,0.147-0.25,0.411-0.308,0.792l-0.484,2.42
			c-0.03,0.118-0.044,0.279-0.044,0.484c0,0.323,0.102,0.594,0.308,0.814C1.134,28.534,1.516,28.762,2.073,28.996z M28.671,26.862
			c0.748,1.012,1.804,1.826,3.168,2.442c1.364,0.616,3.146,0.924,5.346,0.924c0.528,0,1.114-0.022,1.76-0.066
			c0.645-0.044,1.283-0.11,1.914-0.198c0.63-0.088,1.246-0.198,1.848-0.33c0.601-0.132,1.122-0.271,1.562-0.418
			c0.674-0.264,1.056-0.535,1.144-0.814c0.088-0.278,0.088-0.667,0-1.166l-0.352-2.068c-0.118-0.557-0.25-0.872-0.396-0.946
			c-0.147-0.073-0.514-0.08-1.1-0.022c-0.91,0.118-1.834,0.22-2.772,0.308c-0.939,0.088-1.746,0.132-2.42,0.132
			c-0.734,0-1.386-0.051-1.958-0.154c-0.572-0.102-1.056-0.308-1.452-0.616c-0.396-0.308-0.712-0.726-0.946-1.254
			c-0.235-0.528-0.367-1.217-0.396-2.068h10.736c0.938,0,1.576-0.242,1.914-0.726c0.337-0.484,0.506-1.18,0.506-2.09
			c0-1.173-0.132-2.354-0.396-3.542c-0.264-1.188-0.756-2.266-1.474-3.234c-0.719-0.968-1.724-1.752-3.014-2.354
			C40.602,8.001,38.901,7.7,36.789,7.7c-2.318,0-4.144,0.396-5.478,1.188c-1.335,0.792-2.34,1.775-3.014,2.948
			c-0.675,1.174-1.1,2.42-1.276,3.74s-0.264,2.508-0.264,3.564c0,1.467,0.132,2.868,0.396,4.202
			C27.417,24.677,27.923,25.85,28.671,26.862z M34.523,13.794c0.484-0.63,1.239-0.946,2.266-0.946c1.144,0,1.936,0.36,2.376,1.078
			c0.44,0.719,0.66,1.606,0.66,2.662h-6.116C33.768,15.356,34.039,14.425,34.523,13.794z M51.397,38.412h4.84
			c0.41,0,0.667-0.11,0.77-0.33c0.103-0.22,0.154-0.433,0.154-0.638v-7.832h0.044c0.792,0.234,1.628,0.403,2.508,0.506
			c0.88,0.102,1.628,0.154,2.244,0.154c1.789,0,3.263-0.264,4.422-0.792c1.159-0.528,2.075-1.276,2.75-2.244
			c0.674-0.968,1.136-2.156,1.386-3.564c0.249-1.408,0.374-2.992,0.374-4.752c0-1.554-0.103-3.014-0.308-4.378
			c-0.206-1.364-0.58-2.544-1.122-3.542c-0.543-0.997-1.291-1.782-2.244-2.354c-0.953-0.572-2.193-0.858-3.718-0.858
			c-1.027,0-2.083,0.228-3.168,0.682c-1.086,0.455-2.112,1.034-3.08,1.738c-0.029,0-0.044-0.007-0.044-0.022
			c0-0.014-0.015-0.022-0.044-0.022V9.108c0-0.234-0.052-0.454-0.154-0.66c-0.103-0.205-0.359-0.308-0.77-0.308h-4.84
			c-0.352,0-0.594,0.088-0.726,0.264c-0.132,0.176-0.198,0.411-0.198,0.704v28.336c0,0.293,0.059,0.528,0.176,0.704
			C50.766,38.324,51.015,38.412,51.397,38.412z M57.161,15.224c0.528-0.234,1.188-0.506,1.98-0.814s1.525-0.462,2.2-0.462
			c0.44,0,0.829,0.066,1.166,0.198c0.337,0.132,0.616,0.389,0.836,0.77c0.22,0.382,0.381,0.895,0.484,1.54
			c0.102,0.646,0.154,1.496,0.154,2.552c0,1.144-0.059,2.076-0.176,2.794c-0.118,0.719-0.316,1.284-0.594,1.694
			c-0.279,0.411-0.631,0.69-1.056,0.836c-0.425,0.147-0.946,0.22-1.562,0.22c-0.499,0-1.019-0.029-1.562-0.088
			c-0.543-0.058-1.166-0.19-1.87-0.396V15.224z M75.64,29.832h4.796c0.41,0,0.667-0.102,0.77-0.308
			c0.102-0.205,0.154-0.425,0.154-0.66v-7.832h6.996v7.832c0,0.323,0.065,0.565,0.197,0.726c0.131,0.162,0.4,0.242,0.809,0.242
			h4.721c0.437,0,0.707-0.102,0.809-0.308c0.102-0.205,0.153-0.425,0.153-0.66V9.152c0-0.234-0.052-0.462-0.153-0.682
			c-0.102-0.22-0.371-0.33-0.809-0.33h-4.721c-0.408,0-0.678,0.088-0.809,0.264c-0.131,0.176-0.197,0.426-0.197,0.748v6.908H81.36
			V9.152c0-0.234-0.052-0.462-0.154-0.682c-0.103-0.22-0.36-0.33-0.77-0.33H75.64c-0.411,0-0.675,0.088-0.792,0.264
			c-0.118,0.176-0.176,0.426-0.176,0.748v19.712c0,0.323,0.058,0.565,0.176,0.726C74.965,29.752,75.229,29.832,75.64,29.832z
			 M117.748,11.264c-0.734-1.056-1.79-1.914-3.168-2.574c-1.379-0.66-3.198-0.99-5.456-0.99c-2.259,0-4.056,0.382-5.39,1.144
			c-1.335,0.763-2.347,1.709-3.036,2.838c-0.69,1.13-1.137,2.325-1.342,3.586c-0.206,1.262-0.308,2.391-0.308,3.388
			c0,1.203,0.08,2.479,0.242,3.828c0.161,1.35,0.579,2.596,1.254,3.74c0.674,1.144,1.679,2.09,3.014,2.838
			c1.334,0.748,3.19,1.122,5.566,1.122c2.405,0,4.304-0.374,5.698-1.122c1.393-0.748,2.442-1.694,3.146-2.838
			c0.704-1.144,1.144-2.39,1.32-3.74c0.176-1.349,0.264-2.625,0.264-3.828c0-1.261-0.118-2.544-0.352-3.85
			C118.965,13.501,118.481,12.32,117.748,11.264z M112.006,23.1c-0.455,0.91-1.416,1.364-2.882,1.364c-1.32,0-2.2-0.44-2.64-1.32
			c-0.44-0.88-0.66-2.288-0.66-4.224c0-1.789,0.227-3.153,0.682-4.092c0.454-0.938,1.356-1.408,2.706-1.408
			c1.466,0,2.412,0.455,2.838,1.364c0.425,0.91,0.638,2.288,0.638,4.136C112.688,20.798,112.46,22.191,112.006,23.1z M129.61,6.988
			h-4.626c-0.144,0-0.216,0.078-0.216,0.234V8.14c0,0.18,0.084,0.27,0.252,0.27h1.422v3.978c0,0.168,0.09,0.252,0.27,0.252h1.152
			c0.18,0,0.27-0.084,0.27-0.252V8.41h1.458c0.168,0,0.252-0.09,0.252-0.27V7.222C129.844,7.066,129.766,6.988,129.61,6.988z
			 M136.414,6.97h-1.152c-0.096,0-0.165,0.021-0.207,0.063c-0.042,0.042-0.087,0.099-0.135,0.171
			c-0.252,0.468-0.486,0.888-0.702,1.26c-0.18,0.312-0.345,0.597-0.495,0.855c-0.15,0.258-0.219,0.387-0.207,0.387h-0.018
			l-1.404-2.502c-0.048-0.072-0.093-0.129-0.135-0.171c-0.042-0.042-0.111-0.063-0.207-0.063h-1.188
			c-0.168,0-0.252,0.078-0.252,0.234v5.184c0,0.168,0.084,0.252,0.252,0.252h1.188c0.168,0,0.252-0.084,0.252-0.252V9.706
			c0.012,0,0.018,0.003,0.018,0.009c0,0.006,0.006,0.009,0.018,0.009l0.324,0.612l0.594,1.152c0.036,0.06,0.075,0.105,0.117,0.135
			c0.042,0.03,0.111,0.045,0.207,0.045h0.378c0.132,0,0.246-0.072,0.342-0.216l0.684-1.206l0.27-0.522h0.036v2.664
			c0,0.168,0.084,0.252,0.252,0.252h1.17c0.156,0,0.234-0.084,0.234-0.252V7.204C136.648,7.048,136.57,6.97,136.414,6.97z
			 M43.481,59.309c1.599-1.916,2.648-2.202,2.64-2.178c-5.174-3.325-6.898-0.799-7.952,0.712c-1.067,1.54-1.902,1.794-1.906,1.805
			C42.576,61.944,43.437,59.38,43.481,59.309z M32.484,42.444c0.002-0.003,0.622,0.98,0.991,3.465
			c0.347,2.508,1.046,5.813,6.735,6.918c0.005-0.01-0.851-0.974-1.556-4.348C38.623,48.522,38.875,44.371,32.484,42.444z
			 M46.431,55.878c-1.119-1.474-1.247-2.897-1.247-2.901c0.12-3.471-1.261-5.022-2.184-6.158c-0.904-1.163-3.919-2.27-3.926-2.264
			c0.951,1.362,0.887,4.085,0.891,4.076C40.638,55.089,46.478,55.809,46.431,55.878z M30.452,54.25
			c1.608-2.263,2.696-2.67,2.691-2.656c-5.602-2.514-7.271,0.177-8.315,1.909c-1.063,1.767-1.931,2.192-1.934,2.198
			C29.55,57.297,30.422,54.298,30.452,54.25z M33.414,50.307c-1.248-1.278-1.456-2.62-1.455-2.621
			c-0.042-3.314-1.59-4.541-2.633-5.475c-1.029-0.957-4.304-1.579-4.31-1.574c1.104,1.131,1.201,3.669,1.205,3.663
			C27.318,50.289,33.443,50.277,33.414,50.307z M37.647,55.795c-0.001,0.003,0.834-1.036,2.096-1.207
			c0.031-0.066-5.286-3.88-8.229,0.498c-0.006,0.013-0.892,1.909-2.226,2.175c0.003-0.002,3.145,1.2,4.352,1.085
			C34.866,58.203,36.24,58.421,37.647,55.795z M18.395,42.275c0.588,2.244,1.549,5.306,7.577,5.523
			c0.002-0.003-0.946-0.829-1.928-3.87c-0.024,0.028-0.072-3.814-6.999-4.688C17.045,39.24,17.797,40.044,18.395,42.275z
			 M15.269,50.695c1.896-2.118,3.052-2.401,3.05-2.397c-5.706-2.76-7.621-0.297-8.89,1.373c-1.281,1.692-2.247,2.094-2.248,2.095
			C13.989,53.685,15.253,50.723,15.269,50.695z M16.607,43.697c-0.584-3.015-2.411-3.698-3.652-4.287
			c-0.62-0.299-1.796-0.403-2.82-0.43c-0.256-0.007-0.502-0.009-0.727-0.009c-0.225,0.001-0.43,0.004-0.603,0.008
			c-0.345,0.008-0.562,0.02-0.562,0.02c1.339,0.757,1.899,3.007,1.899,3.006c2.17,5.219,8.379,3.753,8.374,3.749
			C17.039,44.877,16.606,43.699,16.607,43.697z M25.587,49.574c0.028-0.049-5.774-3.008-8.555,1.722
			c-0.003,0.005-0.824,2.064-2.198,2.548c0.003-0.005,3.316,0.794,4.57,0.492c1.263-0.321,2.721-0.366,4.055-3.245
			C23.456,51.095,24.272,49.934,25.587,49.574z M11.994,46.134c-0.752-0.315-1.688-1.595-3.315-2.686
			c-3.155-2.1-6.152,0.011-6.335,0.128C1.348,44.238,0,44.672,0,44.673c0.997,0.504,2.154,1.535,2.154,1.536
			c3.345,2.105,5.844,1.616,6.953,1.034C10.213,46.666,11.994,46.134,11.994,46.134z M73.293,60.122
			c0.013,0.038-1.509-2.144-3.034-2.524c-0.001-0.001,0.968-1.808,1.279-3.981c0.01,0.03,0.505-4.159,2.094-6.193
			c-0.015-0.021-4.302,2.086-4.863,5.04c-0.578,2.911-0.888,4.266-1.421,4.925c-3.076,1.107-5.799,2.73-8.175,4.514
			c-2.372-1.791-5.094-3.424-8.17-4.535c-0.53-0.658-0.839-2.012-1.414-4.919c-0.559-2.951-4.825-5.056-4.84-5.035
			c1.582,2.032,2.074,6.216,2.084,6.186c0.309,2.171,1.274,3.976,1.273,3.977c-1.517,0.38-3.033,2.559-3.02,2.522
			c-0.936,1.293-2.42,1.391-2.426,1.405c1.474,0.405,3.932,1.59,4.952,0.198c1.042-1.452,3.074-2.343,3.069-2.333
			c2.43,0.858,4.826,2.186,7.043,3.673c-4.93,4.071-8.102,8.589-9.333,9.785c0.32-0.144,0.64-0.287,0.96-0.43
			c-0.406,0.892,3.9-4.077,9.823-8.342c5.874,4.254,10.139,9.193,9.737,8.304c0.318,0.143,0.637,0.286,0.956,0.429
			c-1.222-1.191-4.363-5.682-9.246-9.739c2.22-1.481,4.618-2.803,7.049-3.658c-0.005-0.011,2.037,0.882,3.083,2.336
			c1.025,1.393,3.495,0.207,4.976-0.199C75.725,61.515,74.234,61.417,73.293,60.122z M80.246,57.865
			c-1.059-1.513-2.792-4.042-7.991-0.714c-0.008-0.024,1.046,0.262,2.653,2.18c0.044,0.072,0.91,2.639,7.253,0.34
			C82.157,59.661,81.318,59.407,80.246,57.865z M84.962,45.917c0.371-2.487,0.994-3.472,0.996-3.469
			c-6.421,1.93-6.168,6.085-6.201,6.042c-0.708,3.377-1.569,4.343-1.564,4.353C83.91,51.735,84.613,48.427,84.962,45.917z
			 M75.392,46.827c-0.928,1.138-2.315,2.69-2.195,6.165c0,0.004-0.129,1.429-1.253,2.904c-0.047-0.07,5.82-0.79,6.498-7.256
			c0.004,0.009-0.06-2.716,0.895-4.08C79.33,44.555,76.3,45.663,75.392,46.827z M93.652,53.52c-1.05-1.734-2.726-4.428-8.356-1.912
			c-0.005-0.013,1.088,0.394,2.704,2.659c0.03,0.049,0.906,3.05,7.595,1.452C95.592,55.715,94.72,55.289,93.652,53.52z
			 M92.252,44.305c0.004,0.006,0.101-2.535,1.211-3.667c-0.005-0.005-3.297,0.618-4.331,1.576c-1.049,0.936-2.605,2.163-2.646,5.482
			c0,0.001-0.208,1.345-1.462,2.624C84.994,50.29,91.15,50.302,92.252,44.305z M86.932,55.104c-2.958-4.382-8.3-0.564-8.269-0.499
			c1.269,0.171,2.108,1.212,2.106,1.208c1.414,2.629,2.795,2.411,4.027,2.554c1.212,0.115,4.37-1.088,4.373-1.086
			C87.828,57.016,86.938,55.117,86.932,55.104z M94.44,43.934c-0.987,3.044-1.94,3.871-1.938,3.874
			c6.057-0.216,7.023-3.283,7.614-5.529c0.602-2.234,1.357-3.039,1.357-3.038C94.512,40.115,94.464,43.962,94.44,43.934z
			 M109.125,49.684c-1.275-1.672-3.2-4.138-8.933-1.375c-0.002-0.004,1.16,0.278,3.065,2.399c0.016,0.027,1.286,2.993,8.127,1.073
			C111.384,51.781,110.413,51.378,109.125,49.684z M108.41,42.008c0.001,0.001,0.563-2.252,1.909-3.01c0,0-0.218-0.012-0.565-0.02
			c-0.173-0.004-0.379-0.007-0.606-0.008c-0.227,0-0.474,0.002-0.731,0.009c-1.029,0.028-2.211,0.131-2.833,0.431
			c-1.248,0.589-3.083,1.274-3.67,4.292c0.001,0.001-0.434,1.181-1.918,2.058C99.99,45.765,106.229,47.233,108.41,42.008z
			 M101.486,51.31c-2.795-4.735-8.625-1.773-8.597-1.724c1.321,0.36,2.141,1.523,2.138,1.519c1.34,2.882,2.805,2.927,4.075,3.249
			c1.26,0.302,4.589-0.498,4.592-0.493C102.314,53.376,101.489,51.315,101.486,51.31z M109.879,43.453
			c-1.635,1.093-2.576,2.375-3.331,2.689c0,0,1.789,0.533,2.901,1.11c1.114,0.582,3.626,1.071,6.987-1.036
			c0,0,1.162-1.033,2.164-1.538c0,0-1.355-0.436-2.355-1.098C116.061,43.464,113.049,41.351,109.879,43.453z"/>
	</g>
</g>
</svg>
