<?xml version="1.0" encoding="utf-8"?>
<!-- Generator: Adobe Illustrator 17.0.0, SVG Export Plug-In . SVG Version: 6.00 Build 0)  -->
<!DOCTYPE svg PUBLIC "-//W3C//DTD SVG 1.1//EN" "http://www.w3.org/Graphics/SVG/1.1/DTD/svg11.dtd">
<svg version="1.1" id="Layer_1" xmlns="http://www.w3.org/2000/svg" xmlns:xlink="http://www.w3.org/1999/xlink" x="0px" y="0px"
	 width="155.259px" height="44.32px" viewBox="0 0 155.259 44.32" enable-background="new 0 0 155.259 44.32" xml:space="preserve">
<g>
	<g>
		<path fill="#BBBBBB" d="M56.92,26.624c2.093-2.508,3.466-2.882,3.456-2.851c-6.773-4.352-9.031-1.046-10.41,0.933
			c-1.397,2.016-2.489,2.349-2.495,2.363C55.735,30.074,56.864,26.718,56.92,26.624z M52.64,18.138
			c0.007-0.013-1.114-1.275-2.037-5.691c-0.042,0.056,0.288-5.378-8.078-7.901c0.003-0.004,0.814,1.283,1.297,4.536
			C44.276,12.366,45.192,16.691,52.64,18.138z M60.782,22.133c-1.465-1.929-1.633-3.793-1.633-3.798
			c0.157-4.544-1.651-6.574-2.859-8.062c-1.183-1.523-5.131-2.972-5.139-2.964c1.245,1.784,1.161,5.348,1.166,5.335
			C53.199,21.1,60.843,22.042,60.782,22.133z M39.865,20.002c2.105-2.963,3.529-3.495,3.522-3.478
			c-7.334-3.29-9.518,0.232-10.885,2.5c-1.392,2.313-2.528,2.87-2.531,2.877C38.684,23.99,39.825,20.065,39.865,20.002z
			 M43.741,14.84c-1.633-1.673-1.905-3.43-1.905-3.432c-0.054-4.339-2.081-5.944-3.448-7.167c-1.347-1.253-5.635-2.067-5.642-2.061
			c1.445,1.48,1.573,4.803,1.577,4.795C35.761,14.816,43.78,14.8,43.741,14.84z M49.284,22.024c-0.002,0.004,1.091-1.356,2.744-1.58
			c0.04-0.086-6.919-5.078-10.773,0.652c-0.008,0.017-1.167,2.5-2.914,2.848c0.004-0.003,4.117,1.572,5.697,1.42
			C45.642,25.176,47.441,25.461,49.284,22.024z M34,11.555c0.003-0.004-1.238-1.085-2.524-5.066
			c-0.032,0.037-0.094-4.993-9.163-6.136c0.001-0.001,0.985,1.051,1.768,3.973C24.85,7.263,26.109,11.272,34,11.555z M19.988,15.348
			c2.482-2.773,3.995-3.142,3.993-3.137c-7.47-3.613-9.977-0.389-11.638,1.797c-1.677,2.215-2.942,2.742-2.942,2.743
			C18.313,19.262,19.967,15.384,19.988,15.348z M13.276,3.971c2.841,6.833,10.968,4.914,10.962,4.908
			c-1.933-1.147-2.5-2.689-2.498-2.692c-0.765-3.947-3.156-4.842-4.781-5.612c-0.811-0.392-2.351-0.527-3.691-0.563
			C12.932,0.002,12.61,0,12.315,0c-0.295,0.001-0.563,0.005-0.789,0.01c-0.452,0.011-0.736,0.025-0.736,0.025
			C12.543,1.026,13.275,3.972,13.276,3.971z M33.495,13.88c0.037-0.064-7.559-3.937-11.2,2.254
			c-0.004,0.006-1.079,2.701-2.877,3.336c0.004-0.006,4.341,1.039,5.982,0.644c1.654-0.421,3.563-0.48,5.309-4.248
			C30.706,15.872,31.774,14.351,33.495,13.88z M15.701,9.378c-0.984-0.412-2.209-2.088-4.339-3.517
			c-4.13-2.749-8.053,0.014-8.293,0.167C1.765,6.894,0,7.464,0,7.464c1.305,0.66,2.82,2.01,2.819,2.01
			c4.379,2.755,7.65,2.115,9.102,1.354C13.37,10.074,15.701,9.377,15.701,9.378z M95.947,27.688
			c0.017,0.049-1.976-2.807-3.972-3.305c-0.002-0.001,1.268-2.366,1.674-5.212c0.013,0.039,0.661-5.444,2.741-8.107
			c-0.02-0.028-5.631,2.73-6.366,6.598c-0.756,3.811-1.163,5.584-1.86,6.448c-4.023,1.447-7.594,3.565-10.702,5.896
			c-3.103-2.342-6.672-4.471-10.694-5.923c-0.694-0.862-1.098-2.633-1.851-6.44c-0.731-3.864-6.316-6.619-6.336-6.591
			c2.07,2.66,2.715,8.137,2.728,8.098c0.404,2.842,1.668,5.205,1.666,5.206c-1.987,0.498-3.97,3.35-3.953,3.301
			c-1.226,1.693-3.168,1.821-3.175,1.84c1.93,0.53,5.147,2.082,6.483,0.26c1.364-1.901,4.024-3.068,4.017-3.054
			c3.178,1.122,6.311,2.858,9.211,4.803c-6.456,5.329-10.597,11.249-12.21,12.815c0.419-0.188,0.838-0.376,1.257-0.563
			c-0.531,1.167,5.106-5.337,12.86-10.92c7.69,5.569,13.274,12.035,12.746,10.871c0.417,0.187,0.834,0.374,1.251,0.562
			c-1.6-1.56-5.703-7.443-12.096-12.755c2.904-1.937,6.04-3.665,9.22-4.783c-0.007-0.014,2.666,1.154,4.037,3.058
			c1.342,1.824,4.575,0.271,6.514-0.26C99.131,29.512,97.179,29.383,95.947,27.688z M105.049,24.734
			c-1.386-1.981-3.655-5.291-10.461-0.934c-0.01-0.031,1.369,0.344,3.473,2.854c0.057,0.094,1.191,3.454,9.496,0.445
			C107.551,27.085,106.453,26.752,105.049,24.734z M111.223,9.092c0.486-3.257,1.301-4.546,1.304-4.541
			c-8.406,2.526-8.075,7.966-8.117,7.91c-0.927,4.421-2.054,5.685-2.047,5.698C109.846,16.709,110.767,12.379,111.223,9.092z
			 M95.821,18.355c0,0.005-0.169,1.871-1.641,3.802c-0.062-0.091,7.62-1.034,8.506-9.499c0.006,0.012-0.079-3.556,1.172-5.341
			c-0.008-0.008-3.975,1.443-5.164,2.967C97.48,11.774,95.664,13.806,95.821,18.355z M122.599,19.046
			c-1.374-2.271-3.569-5.797-10.938-2.502c-0.007-0.017,1.424,0.515,3.539,3.481c0.039,0.063,1.186,3.992,9.942,1.901
			C125.139,21.919,123.997,21.361,122.599,19.046z M120.767,6.982c0.005,0.008,0.133-3.318,1.585-4.801
			c-0.007-0.006-4.316,0.809-5.669,2.063c-1.373,1.224-3.409,2.832-3.464,7.175c0.001,0.001-0.273,1.761-1.914,3.435
			C111.265,14.817,119.323,14.833,120.767,6.982z M113.802,21.119c-3.872-5.737-10.865-0.739-10.825-0.653
			c1.661,0.224,2.76,1.586,2.758,1.582c1.852,3.441,3.659,3.155,5.271,3.343c1.587,0.151,5.721-1.424,5.725-1.422
			C114.975,23.622,113.81,21.136,113.802,21.119z M121.093,11.568c7.929-0.283,9.194-4.297,9.967-7.237
			c0.788-2.924,1.776-3.978,1.777-3.977c-9.113,1.144-9.176,6.18-9.207,6.143C122.338,10.482,121.091,11.564,121.093,11.568z
			 M142.855,14.024c-1.669-2.188-4.189-5.417-11.695-1.8c-0.002-0.005,1.518,0.364,4.012,3.141
			c0.021,0.036,1.684,3.918,10.639,1.405C145.812,16.769,144.54,16.242,142.855,14.024z M130.903,8.889
			c-0.006,0.005,8.161,1.927,11.015-4.913c0.001,0.001,0.737-2.948,2.499-3.94c0,0-0.286-0.015-0.74-0.025
			c-0.227-0.005-0.496-0.01-0.793-0.01c-0.296,0-0.62,0.002-0.957,0.012c-1.347,0.036-2.894,0.172-3.709,0.564
			c-1.633,0.771-4.036,1.667-4.805,5.618C133.415,6.196,132.845,7.74,130.903,8.889z M132.854,16.152
			c-3.658-6.198-11.291-2.321-11.254-2.256c1.73,0.471,2.802,1.993,2.799,1.988c1.754,3.772,3.673,3.831,5.334,4.253
			c1.649,0.395,6.007-0.651,6.012-0.645C133.939,18.857,132.858,16.159,132.854,16.152z M152.175,6.035
			c-0.241-0.154-4.183-2.92-8.333-0.168c-2.14,1.431-3.372,3.109-4.36,3.521c0,0,2.341,0.697,3.798,1.453
			c1.459,0.762,4.746,1.403,9.146-1.356c0-0.001,1.521-1.352,2.833-2.013C155.258,7.472,153.485,6.902,152.175,6.035z"/>
	</g>
</g>
</svg>
